<svg id="Group_1" data-name="Group 1" xmlns="http://www.w3.org/2000/svg" width="178.7" height="195.6" viewBox="0 0 178.7 195.6">
  <path id="Path_1" data-name="Path 1" d="M17.2,159.1H.9L29.2,0,73.1,81.6l-13.6,20L32.3,45.7Z" fill="#fff"/>
  <path id="Path_2" data-name="Path 2" d="M161.9,159.1h16.2L149.8,0,105.9,81.6l13.6,20,27.2-55.9Z" fill="#fff"/>
  <path id="Path_3" data-name="Path 3" d="M89.3,64.2,65.5,104.7,90,143.9l23.9-38.5Z" fill="#fff"/>
  <path id="Path_4" data-name="Path 4" d="M90,143.9l23.9-38.5L89.3,64.2" fill="#e86524"/>
  <path id="Path_5" data-name="Path 5" d="M10.2,166.5H0v.8H.8a2.861,2.861,0,0,1,1.7.4,2.166,2.166,0,0,1,.8.9,12.311,12.311,0,0,1,.2,2.7v20a2.618,2.618,0,0,1-.6,1.5,2.012,2.012,0,0,1-1.1.9,4.013,4.013,0,0,1-1.5.3H0v.8H8.5V194a3.56,3.56,0,0,1-2.5-.7,2.7,2.7,0,0,1-1-1.7,14.32,14.32,0,0,1-.1-2.6V169l9.7,25.7H15l9.6-25.8v21a11.148,11.148,0,0,1-.2,2.6,1.978,1.978,0,0,1-.7,1,3.007,3.007,0,0,1-1.8.4h-.8v.8h13v-.8h-.8a2.861,2.861,0,0,1-1.7-.4,1.891,1.891,0,0,1-.8-1,13.054,13.054,0,0,1-.2-2.7V171.1a11.148,11.148,0,0,1,.2-2.6,1.978,1.978,0,0,1,.7-1,3.007,3.007,0,0,1,1.8-.4h.8v-.8H23.9L17.1,185l-6.9-18.5Zm41.6,23.8a14.961,14.961,0,0,0,.6,1.6,2.2,2.2,0,0,1,.1.8,1.284,1.284,0,0,1-.4,1,3.439,3.439,0,0,1-2,.5h-.5v.8H61.7v-.8a2.741,2.741,0,0,1-1.8-.8,13,13,0,0,1-2.1-4.2l-9-23.2h-.3l-8.9,22.6a18.664,18.664,0,0,1-2.1,4.3,3.842,3.842,0,0,1-2.2,1.3v.8h8.3v-.8a6.133,6.133,0,0,1-2.4-.5,1.95,1.95,0,0,1-.8-1.8,7.989,7.989,0,0,1,.5-2.3l1-2.8h8.8l1.1,3.5Zm-9.5-5.1,3.8-9.8,3.7,9.8Zm26-17.9a2.861,2.861,0,0,1,1.7.4,1.891,1.891,0,0,1,.8,1,13.054,13.054,0,0,1,.2,2.7v15.1a45.913,45.913,0,0,1-.2,5.4,2.649,2.649,0,0,1-.7,1.4,1.9,1.9,0,0,1-1.3.5,2.61,2.61,0,0,1-1.8-.6,1.382,1.382,0,0,1-.5-.9,4.246,4.246,0,0,1,.5-1.2c.3-.6.5-.9.6-1.1a3.083,3.083,0,0,0,.1-1,2.792,2.792,0,0,0-.8-2,2.56,2.56,0,0,0-1.9-.8,2.323,2.323,0,0,0-1.9.9,3.649,3.649,0,0,0-.8,2.4,5.812,5.812,0,0,0,1.9,4.2,6.864,6.864,0,0,0,5.1,1.9,7.83,7.83,0,0,0,4.4-1.2,6.206,6.206,0,0,0,2.5-3.1,17.042,17.042,0,0,0,.7-5.9V171.5a11.148,11.148,0,0,1,.2-2.6,1.978,1.978,0,0,1,.7-1,3.007,3.007,0,0,1,1.8-.4h.8v-.8H67.3v.8h1Zm25.3.8a11.658,11.658,0,0,1,3.9.4,5.093,5.093,0,0,1,2.7,2,13.014,13.014,0,0,1,1.5,4.4h.7v-8.4H81.5v.8h.8a2.883,2.883,0,0,1,1.9.6,2.1,2.1,0,0,1,.7,1.1,12.309,12.309,0,0,1,.1,2.4V190a11.148,11.148,0,0,1-.2,2.6,1.978,1.978,0,0,1-.7,1,2.861,2.861,0,0,1-1.7.4h-.8v.8h21.5l1.1-9h-.7a10.367,10.367,0,0,1-3,5.6,8.371,8.371,0,0,1-5.6,1.8H93.4a2.81,2.81,0,0,1-1.5-.3,2.178,2.178,0,0,1-.7-.9,13.282,13.282,0,0,1-.2-2.9v-8a6.164,6.164,0,0,1,2.7.5,4.035,4.035,0,0,1,1.6,2.1,10.746,10.746,0,0,1,.9,4H97V173h-.7a10.275,10.275,0,0,1-1.4,5,3.836,3.836,0,0,1-3.4,1.7H91V168.2h2.6Zm29.4-2.2a4.132,4.132,0,0,1-.5,1.6.984.984,0,0,1-.8.3,3.908,3.908,0,0,1-1.7-.7,6,6,0,0,0-2.1-.9,9.283,9.283,0,0,0-2.4-.3,7.053,7.053,0,0,0-5.5,2.4,8.078,8.078,0,0,0-2.2,5.8,8.627,8.627,0,0,0,.8,3.6,9.277,9.277,0,0,0,2.3,3,24.289,24.289,0,0,0,4.9,3.2,22.441,22.441,0,0,1,3.4,2.2,7.338,7.338,0,0,1,1.4,1.8,4.486,4.486,0,0,1,.5,1.9,4.41,4.41,0,0,1-1.2,3,4.517,4.517,0,0,1-3.3,1.3,6.963,6.963,0,0,1-5-2.4,12.312,12.312,0,0,1-3.1-6.9h-.7v10.7h.7a2.54,2.54,0,0,1,.9-1.3,1.616,1.616,0,0,1,1-.4,3.359,3.359,0,0,1,1.5.4,18.67,18.67,0,0,0,2.6,1,7.8,7.8,0,0,0,2.2.3,8.221,8.221,0,0,0,6.2-2.6,8.534,8.534,0,0,0,2.4-6.1,8.667,8.667,0,0,0-1.5-5,18.174,18.174,0,0,0-5.9-4.6c-2.1-1.2-3.4-2-4-2.4a5.83,5.83,0,0,1-1.7-1.9,3.064,3.064,0,0,1-.4-1.7,3.631,3.631,0,0,1,1.1-2.6,3.719,3.719,0,0,1,3-1.1,6.068,6.068,0,0,1,4.5,2.2,9.481,9.481,0,0,1,2.6,5.7h.8l-.2-9.4H123Zm5.2.6v7.7h.7a8.863,8.863,0,0,1,2-4.8,4.989,4.989,0,0,1,3.7-1.2h1.8V190a11.149,11.149,0,0,1-.2,2.6,1.649,1.649,0,0,1-.8,1,2.861,2.861,0,0,1-1.7.4h-.8v.8h13V194H145a2.861,2.861,0,0,1-1.7-.4,1.891,1.891,0,0,1-.8-1,13.054,13.054,0,0,1-.2-2.7V168h1.9a4.465,4.465,0,0,1,2.4.4,6.969,6.969,0,0,1,2,1.8,12.563,12.563,0,0,1,1.3,3.8h.7v-7.7H128.2Zm42.9,0v.8a4.963,4.963,0,0,1,2.3.6,1.382,1.382,0,0,1,.5.9c0,.7-.6,2.1-1.7,4.2l-4.5,8.5-4.5-9.4a13.216,13.216,0,0,1-1.5-3.8,1.033,1.033,0,0,1,.4-.8,2.7,2.7,0,0,1,1.5-.4h.5v-.8H152.2v.8a2.489,2.489,0,0,1,1.9.7c.5.4,1.3,1.8,2.5,4.2l5.9,12.1v5.7a11.149,11.149,0,0,1-.2,2.6,1.649,1.649,0,0,1-.8,1,2.861,2.861,0,0,1-1.7.4h-1.3v.8h14v-.8h-1.4a2.537,2.537,0,0,1-1.6-.4,2.166,2.166,0,0,1-.8-.9,13.054,13.054,0,0,1-.2-2.7v-6.9l5.4-10.3a22.337,22.337,0,0,1,2.9-4.8,3.336,3.336,0,0,1,1.9-.8v-.8h-7.6Z" fill="#e86524"/>
</svg>
